<svg fill="none" height="30" viewBox="0 0 30 30" width="30" xmlns="http://www.w3.org/2000/svg"><g fill="#fff"><path d="m15.9375 8.75c0-.51777-.4197-.9375-.9375-.9375s-.9375.41973-.9375.9375v6.25c0 .3232.1665.6237.4406.795l3.75 2.3437c.4391.2745 1.0175.141 1.2919-.2981.2744-.439.1409-1.0174-.2981-1.2918l-3.3094-2.0684z"/><path clip-rule="evenodd" d="m15 4.0625c-6.04062 0-10.9375 4.89688-10.9375 10.9375 0 6.0406 4.89688 10.9375 10.9375 10.9375 6.0406 0 10.9375-4.8969 10.9375-10.9375 0-6.04062-4.8969-10.9375-10.9375-10.9375zm-9.0625 10.9375c0-5.00508 4.05742-9.0625 9.0625-9.0625 5.0051 0 9.0625 4.05742 9.0625 9.0625 0 5.0051-4.0574 9.0625-9.0625 9.0625-5.00508 0-9.0625-4.0574-9.0625-9.0625z" fill-rule="evenodd"/></g></svg>