<svg fill="none" height="60" viewBox="0 0 135 60" width="135" xmlns="http://www.w3.org/2000/svg"><path d="m63.3654 1.84938c18.4297-2.43038 35.5074-1.473007 48.2136 2.0215 6.354 1.74756 11.589 4.12373 15.354 7.00582 3.762 2.8804 6.026 6.2417 6.518 9.9727.492 3.7309-.823 7.5641-3.71 11.3214-2.889 3.7595-7.329 7.4118-13.013 10.7468-11.366 6.6689-27.6114 12.0207-46.0411 14.4511s-35.5074 1.473-48.2133-2.0215c-6.3539-1.7476-11.5898-4.1237-15.35438-7.0058-3.76238-2.8804-6.02598-6.2417-6.517991-9.9727-.492013-3.731.822821-7.5641 3.709861-11.3215 2.88872-3.7594 7.32961-7.4117 13.01331-10.7467 11.3656-6.66889 27.6113-12.02074 46.041-14.45112z" stroke="#a7a47f"/></svg>