<svg fill="none" height="19" viewBox="0 0 18 19" width="18" xmlns="http://www.w3.org/2000/svg"><g fill="#fff"><path d="m2.04 0c-1.126661 0-2.04.939039-2.04 2.0974 0 1.15837.913339 2.09741 2.04 2.09741 1.12666 0 2.04-.93904 2.04-2.09741 0-1.158361-.91334-2.0974-2.04-2.0974z"/><path d="m.12 5.92208c-.0662742 0-.12.05524-.12.12337v12.83115c0 .0682.0537258.1234.12.1234h3.84c.06627 0 .12-.0552.12-.1234v-12.83115c0-.06813-.05373-.12337-.12-.12337z"/><path d="m6.36 5.92208c-.06627 0-.12.05524-.12.12337v12.83115c0 .0682.05373.1234.12.1234h3.84c.0663 0 .12-.0552.12-.1234v-6.9091c0-.4908.1896-.9615.5272-1.3086.3376-.347.7954-.542 1.2728-.542s.9352.195 1.2728.542c.3376.3471.5272.8178.5272 1.3086v6.9091c0 .0682.0537.1234.12.1234h3.84c.0663 0 .12-.0552.12-.1234v-8.5078c0-2.39521-2.0262-4.26907-4.3442-4.05241-.7148.06681-1.4216.24952-2.0816.54033l-1.2542.55265v-1.36392c0-.06813-.0537-.12337-.12-.12337z"/></g></svg>