<svg fill="none" height="30" viewBox="0 0 30 30" width="30" xmlns="http://www.w3.org/2000/svg"><g clip-rule="evenodd" fill="#fff" fill-rule="evenodd"><path d="m9.06253 12.5c0-3.27919 2.65827-5.9375 5.93747-5.9375s5.9375 2.65831 5.9375 5.9375c0 3.2792-2.6583 5.9375-5.9375 5.9375s-5.93747-2.6583-5.93747-5.9375zm5.93747-4.0625c-2.2436 0-4.0625 1.8188-4.0625 4.0625s1.8189 4.0625 4.0625 4.0625c2.2437 0 4.0625-1.8188 4.0625-4.0625s-1.8188-4.0625-4.0625-4.0625z"/><path d="m4.40549 11.0711c.4429-5.3733 4.93309-9.5086 10.32461-9.5086h.5399c5.3915 0 9.8817 4.1353 10.3246 9.5086.2379 2.8864-.6537 5.7525-2.487 7.9946l-5.9913 7.3272c-1.0938 1.3377-3.1387 1.3377-4.2325.0001l-5.99131-7.3273c-1.83333-2.2421-2.72493-5.1082-2.487-7.9946zm10.32461-7.6336c-4.4157 0-8.09321 3.38685-8.45595 7.7876-.19802 2.4023.54404 4.7877 2.06986 6.6537l5.99129 7.3273c.3436.4201.9859.4201 1.3294 0l5.9914-7.3273c1.5258-1.866 2.2678-4.2514 2.0698-6.6537-.3627-4.40075-4.0402-7.7876-8.4559-7.7876z"/></g></svg>