<svg fill="none" height="18" viewBox="0 0 117 18" width="117" xmlns="http://www.w3.org/2000/svg"><path d="m0 16.8604v-16.8604h1.66812v16.8604zm10.83-12.33218c1.4298 0 2.566.44949 3.4077 1.34884.8422.88304 1.263 2.07957 1.263 3.58885v7.39449h-1.5728v-7.39449c0-1.07573-.2859-1.91096-.8579-2.50497-.5558-.594-1.3502-.89119-2.383-.89119-1.19152 0-2.13667.37722-2.83582 1.13205-.68301.75483-1.0247 1.87058-1.0247 3.348v6.3106h-1.57281v-12.04314h1.57281v1.87873c.88979-1.44518 2.22429-2.16777 4.00352-2.16777zm12.0043 10.67028 4.1703-10.38124h1.6681l-4.8852 12.04314h-1.9065l-4.8852-12.04314h1.6681zm12.7785-10.67028c1.7796 0 3.2014.6344 4.2657 1.90282 1.0962 1.25249 1.6443 2.73769 1.6443 4.45596 0 .0804-.0158.3291-.0477.7467h-10.4615c.1591 1.2043.6672 2.1677 1.5251 2.8903s1.9303 1.0839 3.2171 1.0839c1.8111 0 3.0903-.6825 3.8367-2.0473l1.3822.8189c-.5243.8671-1.2469 1.5497-2.1686 2.0474-.9056.4817-1.9303.7225-3.0741.7225-1.8746 0-3.3997-.594-4.5754-1.7823-1.1754-1.1884-1.7635-2.6977-1.7635-4.5283 0-1.81459.58-3.31572 1.7396-4.5041 1.16-1.20432 2.6533-1.80648 4.4801-1.80648zm0 1.54153c-1.2391 0-2.2796.36944-3.1217 1.10796-.826.73853-1.3184 1.71013-1.4775 2.91449h8.8887c-.1745-1.28477-.6592-2.2723-1.4537-2.96265-.826-.70666-1.7711-1.0598-2.8358-1.0598zm9.1857 1.90281c0 .93122.8183 1.61378 2.4546 2.04734.4608.1123.7625.1927.9055.2409.143.0322.4209.1204.8341.2649.4289.1286.7229.2409.8817.3372.1749.0964.4132.249.7149.4577.3017.1927.5162.3935.6434.6021.1272.1927.2464.4495.3575.7708.1111.3049.1668.6344.1668.9875 0 1.0276-.4051 1.8628-1.2154 2.505-.7783.6422-1.8111.9634-3.0979.9634-1.112 0-2.0733-.249-2.8835-.7466-.8102-.514-1.3821-1.1884-1.7158-2.0233l1.3345-.7948c.2226.6262.6196 1.1239 1.1916 1.4933.5876.3532 1.2787.5299 2.0732.5299.8102 0 1.4694-.1604 1.9779-.4817s.7626-.803.7626-1.4452c0-.9312-.8183-1.6138-2.4545-2.0473-.4609-.1123-.7626-.1846-.9056-.2168-.143-.0482-.4289-.1364-.8579-.2649-.4132-.1446-.7068-.265-.8817-.3613-.1588-.0964-.3894-.2409-.6911-.4336-.3017-.2086-.5162-.40946-.6434-.60215-.1272-.20863-.2464-.46579-.3575-.77076-.1111-.32128-.1668-.65848-.1668-1.01163 0-.97938.3813-1.79832 1.1439-2.4568.7945-.65848 1.7715-.98754 2.9311-.98754.9532 0 1.7953.21678 2.526.65034.7468.43355 1.2949 1.03571 1.6443 1.80647l-1.3106.77075c-.4448-1.1239-1.398-1.68603-2.8597-1.68603-.7149 0-1.3107.1686-1.7873.50581s-.7149.803-.7149 1.397zm15.4318-3.1553v1.54152h-3.4315v7.29812c0 .6585.1272 1.1321.3812 1.4211.2541.2731.6354.4176 1.1439.4336.5085 0 1.1439-.016 1.9064-.0482v1.397c-1.7.2568-2.963.1364-3.789-.3613-.8102-.514-1.2153-1.4611-1.2153-2.8422v-7.29812h-2.5022v-1.54152h2.5022v-2.89036l1.5728-.48172v3.37208zm15.323-.28904c1.3502 0 2.4307.43356 3.2409 1.30066.8102.86711 1.2153 2.03919 1.2153 3.5166v7.51492h-1.5728v-7.51492c0-1.02756-.2621-1.83056-.7864-2.40863-.5242-.57807-1.2311-.8671-2.1209-.8671-1.0327 0-1.843.34536-2.4307 1.03571s-.8817 1.71827-.8817 3.08304v6.6719h-1.5728v-7.51492c0-1.04386-.2464-1.84649-.7387-2.40863-.4924-.57807-1.1758-.8671-2.0495-.8671-1.0008 0-1.8268.35314-2.4783 1.0598-.6354.70665-.9532 1.72605-.9532 3.05895v6.6719h-1.5728v-12.04314h1.5728v1.7583c.8579-1.36477 2.0732-2.04734 3.646-2.04734 1.7316 0 2.9392.73074 3.6222 2.19185.8579-1.46111 2.1448-2.19185 3.8606-2.19185zm13.0033 0c1.7792 0 3.2009.6344 4.2656 1.90282 1.0962 1.25249 1.6443 2.73769 1.6443 4.45596 0 .0804-.0161.3291-.0477.7467h-10.4615c.1588 1.2043.6673 2.1677 1.5252 2.8903.8578.7226 1.9302 1.0839 3.2171 1.0839 1.8111 0 3.0899-.6825 3.8367-2.0473l1.3821.8189c-.5243.8671-1.2472 1.5497-2.1686 2.0474-.9055.4817-1.9302.7225-3.0741.7225-1.8749 0-3.4-.594-4.5754-1.7823-1.1757-1.1884-1.7634-2.6977-1.7634-4.5283 0-1.81459.5796-3.31572 1.7396-4.5041 1.1596-1.20432 2.6528-1.80648 4.4801-1.80648zm0 1.54153c-1.2392 0-2.28.36944-3.1218 1.10796-.8264.73853-1.3187 1.71013-1.4775 2.91449h8.8887c-.1748-1.28477-.6595-2.2723-1.4536-2.96265-.8264-.70666-1.7715-1.0598-2.8358-1.0598zm13.9884-1.54153c1.429 0 2.565.44949 3.407 1.34884.842.88304 1.263 2.07957 1.263 3.58885v7.39449h-1.572v-7.39449c0-1.07573-.286-1.91096-.858-2.50497-.556-.594-1.351-.89119-2.383-.89119-1.192 0-2.137.37722-2.8362 1.13205-.6834.75483-1.0247 1.87058-1.0247 3.348v6.3106h-1.5728v-12.04314h1.5728v1.87873c.8895-1.44518 2.2239-2.16777 4.0039-2.16777zm14.027.28904v1.54152h-3.432v7.29812c0 .6585.127 1.1321.381 1.4211.254.2731.636.4176 1.144.4336.508 0 1.144-.016 1.907-.0482v1.397c-1.7.2568-2.963.1364-3.789-.3613-.811-.514-1.216-1.4611-1.216-2.8422v-7.29812h-2.502v-1.54152h2.502v-2.89036l1.573-.48172v3.37208z" fill="#fff"/></svg>