<svg width="268" height="73" viewBox="0 0 268 73" fill="none" xmlns="http://www.w3.org/2000/svg">
<path d="M0.392809 0.926395C0.0261871 1.48223 -0.0837991 2.11218 0.0628494 2.66802C0.429471 3.85379 19.2371 58.6966 21.2902 64.5885C23.3799 70.5545 23.8932 71.4438 25.543 71.9255C26.3129 72.1479 30.3457 72.259 35.9184 72.1849L45.0471 72.0737L45.8537 71.0362C46.2936 70.4803 49.1166 63.1062 52.1229 54.6575C55.1292 46.2088 57.6955 39.2793 57.8055 39.2793C57.9155 39.2793 60.4818 46.2458 63.4881 54.7316C66.5311 63.2544 69.3541 70.6286 69.794 71.1473L70.5639 72.0737L80.1327 72.1849C91.7546 72.3331 91.3513 72.4443 92.9278 68.294C93.771 66.0336 109.756 19.899 114.888 4.92841C115.842 2.07513 115.842 1.9269 115.255 0.963451L114.632 0H104.256C92.9278 0 92.8545 -1.76696e-07 91.718 2.22335C91.278 3.11269 85.7054 21.5665 81.2693 36.9817C80.6093 39.2423 79.9861 41.0951 79.9128 41.0209C79.8761 40.9468 76.9065 32.498 73.3869 22.2705C69.8307 12.0061 66.6044 2.96447 66.2378 2.18629C65.8345 1.40812 65.1746 0.592892 64.808 0.370558C63.8548 -0.111168 51.7563 -0.111168 50.803 0.370558C49.5565 1.07462 49.5199 1.14873 40.9409 26.1244C38.3379 33.6467 36.1017 40.1316 35.955 40.5022C35.8084 40.9839 33.8286 34.8695 30.0891 22.3076C27.0095 11.8949 24.2232 2.89035 23.9299 2.26041C22.7567 -1.76696e-07 22.72 0 11.3548 0H0.979402L0.392809 0.926395Z" fill="white"/>
<path d="M117.051 55.4359C116.135 56.3252 116.025 57.2516 116.172 64.2181C116.282 69.8877 116.355 70.8511 116.941 71.4069C117.491 71.9998 118.445 72.074 124.054 72.1851C127.61 72.2592 130.91 72.2222 131.35 72.111C133.256 71.6293 133.329 71.2587 133.329 63.4029C133.329 56.7699 133.256 56.0288 132.67 55.4729C131.68 54.5465 117.931 54.5465 117.051 55.4359Z" fill="white"/>
<path d="M150.388 72.2588V55.3984H152.056V72.2588H150.388ZM161.218 59.9267C162.648 59.9267 163.784 60.3761 164.626 61.2755C165.468 62.1585 165.889 63.3551 165.889 64.8644V72.2588H164.316V64.8644C164.316 63.7886 164.03 62.9534 163.458 62.3594C162.902 61.7654 162.108 61.4682 161.075 61.4682C159.883 61.4682 158.938 61.8454 158.239 62.6002C157.556 63.3551 157.214 64.4708 157.214 65.9482V72.2588H155.642V60.2157H157.214V62.0944C158.104 60.6493 159.439 59.9267 161.218 59.9267ZM173.222 70.5969L177.393 60.2157H179.061L174.175 72.2588H172.269L167.384 60.2157H169.052L173.222 70.5969ZM186.001 59.9267C187.78 59.9267 189.202 60.5611 190.266 61.8295C191.363 63.082 191.911 64.5672 191.911 66.2854C191.911 66.3659 191.895 66.6145 191.863 67.0321H181.402C181.561 68.2364 182.069 69.1999 182.927 69.9225C183.785 70.6451 184.857 71.0064 186.144 71.0064C187.955 71.0064 189.234 70.3238 189.98 68.959L191.363 69.778C190.838 70.6451 190.116 71.3276 189.194 71.8253C188.288 72.307 187.264 72.5479 186.12 72.5479C184.245 72.5479 182.72 71.9539 181.544 70.7655C180.369 69.5771 179.781 68.0678 179.781 66.2373C179.781 64.4226 180.361 62.9215 181.521 61.7331C182.681 60.5288 184.174 59.9267 186.001 59.9267ZM186.001 61.4682C184.762 61.4682 183.721 61.8376 182.879 62.5762C182.053 63.3147 181.561 64.2863 181.402 65.4906H190.29C190.116 64.2059 189.631 63.2183 188.837 62.528C188.011 61.8213 187.065 61.4682 186.001 61.4682ZM195.186 63.371C195.186 64.3022 196.005 64.9848 197.641 65.4183C198.102 65.5306 198.404 65.611 198.547 65.6592C198.69 65.6914 198.967 65.7796 199.381 65.9241C199.81 66.0527 200.104 66.165 200.262 66.2614C200.437 66.3577 200.676 66.5104 200.977 66.719C201.279 66.9117 201.493 67.1125 201.621 67.3212C201.748 67.5138 201.867 67.7706 201.978 68.0919C202.089 68.3969 202.145 68.7263 202.145 69.0795C202.145 70.107 201.74 70.9422 200.93 71.5844C200.151 72.2266 199.118 72.5479 197.832 72.5479C196.72 72.5479 195.758 72.2989 194.948 71.8012C194.138 71.2872 193.566 70.6128 193.232 69.778L194.567 68.9831C194.789 69.6094 195.186 70.107 195.758 70.4765C196.346 70.8296 197.037 71.0064 197.832 71.0064C198.642 71.0064 199.301 70.8459 199.81 70.5246C200.318 70.2034 200.572 69.7216 200.572 69.0795C200.572 68.1482 199.754 67.4657 198.118 67.0321C197.657 66.9198 197.355 66.8476 197.212 66.8153C197.069 66.7672 196.783 66.679 196.354 66.5504C195.941 66.4059 195.647 66.2854 195.472 66.1891C195.314 66.0928 195.083 65.9482 194.781 65.7555C194.48 65.5469 194.265 65.3461 194.138 65.1534C194.011 64.9448 193.892 64.6876 193.78 64.3826C193.669 64.0613 193.614 63.7241 193.614 63.371C193.614 62.3916 193.995 61.5727 194.758 60.9142C195.552 60.2557 196.529 59.9267 197.689 59.9267C198.642 59.9267 199.484 60.1434 200.215 60.577C200.961 61.0105 201.51 61.6127 201.859 62.3835L200.548 63.1542C200.104 62.0303 199.15 61.4682 197.689 61.4682C196.974 61.4682 196.378 61.6368 195.901 61.974C195.425 62.3112 195.186 62.777 195.186 63.371ZM210.618 60.2157V61.7572H207.187V69.0554C207.187 69.7138 207.314 70.1874 207.568 70.4765C207.822 70.7496 208.203 70.8941 208.712 70.91C209.22 70.91 209.856 70.8941 210.618 70.8618V72.2588C208.918 72.5156 207.655 72.3952 206.829 71.8975C206.019 71.3836 205.614 70.4364 205.614 69.0554V61.7572H203.112V60.2157H205.614V57.3253L207.187 56.8436V60.2157H210.618ZM225.941 59.9267C227.291 59.9267 228.372 60.3602 229.182 61.2273C229.992 62.0944 230.397 63.2665 230.397 64.7439V72.2588H228.825V64.7439C228.825 63.7164 228.563 62.9134 228.038 62.3353C227.514 61.7572 226.807 61.4682 225.917 61.4682C224.885 61.4682 224.074 61.8135 223.487 62.5039C222.899 63.1942 222.605 64.2222 222.605 65.5869V72.2588H221.032V64.7439C221.032 63.7001 220.786 62.8974 220.293 62.3353C219.801 61.7572 219.118 61.4682 218.244 61.4682C217.243 61.4682 216.417 61.8213 215.766 62.528C215.13 63.2346 214.812 64.254 214.812 65.5869V72.2588H213.24V60.2157H214.812V61.974C215.67 60.6092 216.886 59.9267 218.458 59.9267C220.19 59.9267 221.398 60.6574 222.081 62.1185C222.939 60.6574 224.225 59.9267 225.941 59.9267ZM238.945 59.9267C240.724 59.9267 242.145 60.5611 243.21 61.8295C244.306 63.082 244.854 64.5672 244.854 66.2854C244.854 66.3659 244.838 66.6145 244.807 67.0321H234.345C234.504 68.2364 235.012 69.1999 235.87 69.9225C236.728 70.6451 237.801 71.0064 239.087 71.0064C240.899 71.0064 242.177 70.3238 242.924 68.959L244.306 69.778C243.782 70.6451 243.059 71.3276 242.138 71.8253C241.232 72.307 240.208 72.5479 239.064 72.5479C237.189 72.5479 235.664 71.9539 234.488 70.7655C233.312 69.5771 232.725 68.0678 232.725 66.2373C232.725 64.4226 233.304 62.9215 234.464 61.7331C235.624 60.5288 237.117 59.9267 238.945 59.9267ZM238.945 61.4682C237.705 61.4682 236.664 61.8376 235.823 62.5762C234.996 63.3147 234.504 64.2863 234.345 65.4906H243.234C243.059 64.2059 242.574 63.2183 241.78 62.528C240.954 61.8213 240.009 61.4682 238.945 61.4682ZM252.933 59.9267C254.362 59.9267 255.498 60.3761 256.34 61.2755C257.182 62.1585 257.603 63.3551 257.603 64.8644V72.2588H256.031V64.8644C256.031 63.7886 255.745 62.9534 255.173 62.3594C254.616 61.7654 253.822 61.4682 252.79 61.4682C251.598 61.4682 250.653 61.8454 249.954 62.6002C249.27 63.3551 248.929 64.4708 248.929 65.9482V72.2588H247.356V60.2157H248.929V62.0944C249.818 60.6493 251.153 59.9267 252.933 59.9267ZM266.959 60.2157V61.7572H263.528V69.0554C263.528 69.7138 263.655 70.1874 263.909 70.4765C264.163 70.7496 264.545 70.8941 265.053 70.91C265.561 70.91 266.197 70.8941 266.959 70.8618V72.2588C265.259 72.5156 263.996 72.3952 263.17 71.8975C262.36 71.3836 261.955 70.4364 261.955 69.0554V61.7572H259.453V60.2157H261.955V57.3253L263.528 56.8436V60.2157H266.959Z" fill="white"/>
</svg>
