<svg fill="none" height="73" viewBox="0 0 116 73" width="116" xmlns="http://www.w3.org/2000/svg"><path d="m.392809.926395c-.3666219.555835-.4766081 1.185785-.3299596 1.741625.3666216 1.18577 19.1742506 56.02858 21.2273506 61.92048 2.0897 5.966 2.603 6.8553 4.2528 7.337.7699.2224 4.8027.3335 10.3754.2594l9.1287-.1112.8066-1.0375c.4399-.5559 3.2629-7.93 6.2692-16.3787s5.5726-15.3782 5.6826-15.3782 2.6763 6.9665 5.6826 15.4523c3.043 8.5228 5.866 15.897 6.3059 16.4157l.7699.9264 9.5688.1112c11.6219.1482 11.2186.2594 12.7951-3.8909.8432-2.2604 16.8282-48.395 21.9602-63.36559.954-2.85328.954-3.00151.367-3.964959l-.623-.963451h-10.376c-11.3282 0-11.4015-.00000018-12.538 2.22335-.44.88934-6.0126 19.34315-10.4487 34.75835-.66 2.2606-1.2832 4.1134-1.3565 4.0392-.0367-.0741-3.0063-8.5229-6.5259-18.7504-3.5562-10.2644-6.7825-19.30603-7.1491-20.08421-.4033-.77817-1.0632-1.593398-1.4298-1.815732-.9532-.481726-13.0517-.481726-14.005 0-1.2465.704062-1.2831.778172-9.8621 25.753842-2.603 7.5223-4.8392 14.0072-4.9859 14.3778-.1466.4817-2.1264-5.6327-5.8659-18.1946-3.0796-10.4127-5.8659-19.41725-6.1592-20.04719-1.1732-2.26041018-1.2099-2.26041-12.5751-2.26041h-10.375398z" fill="#fff"/></svg>