<svg fill="none" height="30" viewBox="0 0 30 30" width="30" xmlns="http://www.w3.org/2000/svg"><path clip-rule="evenodd" d="m13.1079 5.14236c.843-1.45284 2.9411-1.45283 3.7841 0l2.5817 4.4492c.2379.41014.6493.68994 1.1181.76074l4.287.6475c1.8688.2823 2.5243 2.6418 1.0689 3.8475l-3.1236 2.5879c-.4384.3632-.6446.9362-.5381 1.4955l.875 4.595c.3428 1.7999-1.5468 3.1984-3.168 2.3447l-4.2651-2.2457c-.4556-.2399-1.0003-.2399-1.4559 0l-4.2651 2.2457c-1.62124.8537-3.51077-.5448-3.16803-2.3447l.87498-4.595c.1065-.5593-.09965-1.1323-.53807-1.4955l-3.12363-2.5879c-1.45536-1.2057-.79985-3.5652 1.06889-3.8475l4.28706-.6475c.46883-.0708.8801-.3506 1.1181-.76074zm2.1623.94104c-.1204-.20755-.4201-.20755-.5405-.00001l-2.5817 4.44921c-.5236.9022-1.4285 1.5179-2.45988 1.6737l-4.28706.6475c-.26696.0403-.3606.3774-.1527.5497l3.12363 2.5878c.96454.7992 1.41807 2.0597 1.18376 3.2901l-.87497 4.595c-.04897.2571.22096.4569.45258.335l4.26504-2.2458c1.0025-.5278 2.2006-.5278 3.2031 0l4.265 2.2458c.2316.1219.5016-.0779.4526-.335l-.875-4.595c-.2343-1.2304.2193-2.4909 1.1838-3.29l3.1236-2.5879c.2079-.1723.1143-.5094-.1527-.5497l-4.287-.6475c-1.0315-.1558-1.9363-.7715-2.4599-1.6737z" fill="#fff" fill-rule="evenodd"/></svg>